<?xml version="1.0" encoding="UTF-8" standalone="no"?>
<!DOCTYPE svg PUBLIC "-//W3C//DTD SVG 1.1//EN"
 "http://www.w3.org/Graphics/SVG/1.1/DTD/svg11.dtd">
<!-- Generated by graphviz version 9.0.0 (20230911.1827)
 -->
<!-- Pages: 1 -->
<svg width="400pt" height="114pt"
 viewBox="0.00 0.00 400.13 114.49" xmlns="http://www.w3.org/2000/svg" xmlns:xlink="http://www.w3.org/1999/xlink">
<g id="graph0" class="graph" transform="scale(1 1) rotate(0) translate(4 110.49)">
<polygon fill="white" stroke="none" points="-4,4 -4,-110.49 396.13,-110.49 396.13,4 -4,4"/>
<!-- align -->
<g id="node1" class="node">
<title>align</title>
<ellipse fill="none" stroke="black" cx="29.34" cy="-28.99" rx="29.34" ry="18"/>
<text text-anchor="middle" x="29.34" y="-23.94" font-family="Times,serif" font-size="14.00">align</text>
</g>
<!-- call\nvariant -->
<g id="node2" class="node">
<title>call\nvariant</title>
<ellipse fill="none" stroke="black" cx="132.52" cy="-28.99" rx="37.83" ry="28.99"/>
<text text-anchor="middle" x="132.52" y="-32.19" font-family="Times,serif" font-size="14.00">call</text>
<text text-anchor="middle" x="132.52" y="-15.69" font-family="Times,serif" font-size="14.00">variant</text>
</g>
<!-- align&#45;&gt;call\nvariant -->
<g id="edge1" class="edge">
<title>align&#45;&gt;call\nvariant</title>
<path fill="none" stroke="black" d="M59.07,-28.99C66.53,-28.99 74.78,-28.99 82.96,-28.99"/>
<polygon fill="black" stroke="black" points="82.88,-32.49 92.88,-28.99 82.88,-25.49 82.88,-32.49"/>
</g>
<!-- annotate -->
<g id="node3" class="node">
<title>annotate</title>
<ellipse fill="none" stroke="black" cx="248.49" cy="-28.99" rx="42.14" ry="18"/>
<text text-anchor="middle" x="248.49" y="-23.94" font-family="Times,serif" font-size="14.00">annotate</text>
</g>
<!-- call\nvariant&#45;&gt;annotate -->
<g id="edge2" class="edge">
<title>call\nvariant&#45;&gt;annotate</title>
<path fill="none" stroke="black" d="M170.84,-28.99C178.51,-28.99 186.73,-28.99 194.84,-28.99"/>
<polygon fill="black" stroke="black" points="194.63,-32.49 204.63,-28.99 194.63,-25.49 194.63,-32.49"/>
</g>
<!-- filter -->
<g id="node4" class="node">
<title>filter</title>
<ellipse fill="none" stroke="black" cx="359.38" cy="-28.99" rx="28.83" ry="18"/>
<text text-anchor="middle" x="359.38" y="-23.94" font-family="Times,serif" font-size="14.00">filter</text>
</g>
<!-- annotate&#45;&gt;filter -->
<g id="edge3" class="edge">
<title>annotate&#45;&gt;filter</title>
<path fill="none" stroke="black" d="M290.96,-28.99C300.07,-28.99 309.7,-28.99 318.73,-28.99"/>
<polygon fill="black" stroke="black" points="318.67,-32.49 328.67,-28.99 318.67,-25.49 318.67,-32.49"/>
</g>
<!-- db1 -->
<g id="node5" class="node">
<title>db1</title>
<polygon fill="none" stroke="black" points="281.24,-106.49 215.74,-106.49 215.74,-65.49 281.24,-65.49 281.24,-106.49"/>
<text text-anchor="middle" x="248.49" y="-89.19" font-family="Times,serif" font-size="14.00">Database</text>
<text text-anchor="middle" x="248.49" y="-72.69" font-family="Times,serif" font-size="14.00">1,2...</text>
</g>
<!-- db1&#45;&gt;annotate -->
<g id="edge4" class="edge">
<title>db1&#45;&gt;annotate</title>
<path fill="none" stroke="black" d="M248.49,-65.11C248.49,-62.97 248.49,-60.83 248.49,-58.69"/>
<polygon fill="black" stroke="black" points="251.99,-58.76 248.49,-48.76 244.99,-58.76 251.99,-58.76"/>
</g>
<!-- db2 -->
<g id="node6" class="node">
<title>db2</title>
<polygon fill="none" stroke="black" points="392.13,-106.49 326.63,-106.49 326.63,-65.49 392.13,-65.49 392.13,-106.49"/>
<text text-anchor="middle" x="359.38" y="-89.19" font-family="Times,serif" font-size="14.00">Database</text>
<text text-anchor="middle" x="359.38" y="-72.69" font-family="Times,serif" font-size="14.00">3,4..</text>
</g>
<!-- db2&#45;&gt;filter -->
<g id="edge5" class="edge">
<title>db2&#45;&gt;filter</title>
<path fill="none" stroke="black" d="M359.38,-65.11C359.38,-62.97 359.38,-60.83 359.38,-58.69"/>
<polygon fill="black" stroke="black" points="362.88,-58.76 359.38,-48.76 355.88,-58.76 362.88,-58.76"/>
</g>
</g>
</svg>
