<?xml version="1.0" encoding="UTF-8" standalone="no"?>
<!DOCTYPE svg PUBLIC "-//W3C//DTD SVG 1.1//EN"
 "http://www.w3.org/Graphics/SVG/1.1/DTD/svg11.dtd">
<!-- Generated by graphviz version 9.0.0 (20230911.1827)
 -->
<!-- Pages: 1 -->
<svg width="689pt" height="467pt"
 viewBox="0.00 0.00 688.70 466.65" xmlns="http://www.w3.org/2000/svg" xmlns:xlink="http://www.w3.org/1999/xlink">
<g id="graph0" class="graph" transform="scale(1 1) rotate(0) translate(4 462.65)">
<polygon fill="white" stroke="none" points="-4,4 -4,-462.65 684.7,-462.65 684.7,4 -4,4"/>
<!-- Ag vWF -->
<g id="node1" class="node">
<title>Ag vWF</title>
<ellipse fill="none" stroke="black" cx="225.51" cy="-440.65" rx="43.67" ry="18"/>
<text text-anchor="middle" x="225.51" y="-435.6" font-family="Times,serif" font-size="14.00">Ag vWF</text>
</g>
<!-- vWFpp -->
<g id="node2" class="node">
<title>vWFpp</title>
<ellipse fill="none" stroke="black" cx="153.51" cy="-352.15" rx="39.07" ry="18"/>
<text text-anchor="middle" x="153.51" y="-347.1" font-family="Times,serif" font-size="14.00">vWFpp</text>
</g>
<!-- Ag vWF&#45;&gt;vWFpp -->
<g id="edge1" class="edge">
<title>Ag vWF&#45;&gt;vWFpp</title>
<path fill="none" stroke="black" d="M211.81,-423.28C206.9,-417.41 201.33,-410.74 196.26,-404.65 189.05,-396 181.17,-386.51 174.16,-378.07"/>
<polygon fill="black" stroke="black" points="177.02,-376.03 167.94,-370.56 171.63,-380.5 177.02,-376.03"/>
<text text-anchor="middle" x="229.13" y="-391.35" font-family="Times,serif" font-size="14.00">indétectable</text>
</g>
<!-- activité/Ag vWF -->
<g id="node5" class="node">
<title>activité/Ag vWF</title>
<ellipse fill="none" stroke="black" cx="298.51" cy="-352.15" rx="73.36" ry="18"/>
<text text-anchor="middle" x="298.51" y="-347.1" font-family="Times,serif" font-size="14.00">activité/Ag vWF</text>
</g>
<!-- Ag vWF&#45;&gt;activité/Ag vWF -->
<g id="edge4" class="edge">
<title>Ag vWF&#45;&gt;activité/Ag vWF</title>
<path fill="none" stroke="black" d="M242.98,-423.86C249.08,-418.04 255.82,-411.26 261.51,-404.65 268.22,-396.86 274.97,-387.89 280.82,-379.65"/>
<polygon fill="black" stroke="black" points="283.54,-381.87 286.37,-371.66 277.79,-377.88 283.54,-381.87"/>
<text text-anchor="middle" x="290.13" y="-391.35" font-family="Times,serif" font-size="14.00">sinon</text>
</g>
<!-- Type 3 -->
<g id="node3" class="node">
<title>Type 3</title>
<ellipse fill="none" stroke="black" cx="36.51" cy="-263.65" rx="36.51" ry="18"/>
<text text-anchor="middle" x="36.51" y="-258.6" font-family="Times,serif" font-size="14.00">Type 3</text>
</g>
<!-- vWFpp&#45;&gt;Type 3 -->
<g id="edge2" class="edge">
<title>vWFpp&#45;&gt;Type 3</title>
<path fill="none" stroke="black" d="M133.4,-336.28C114.59,-322.37 86.29,-301.46 65.13,-285.81"/>
<polygon fill="black" stroke="black" points="67.31,-283.07 57.19,-279.94 63.15,-288.7 67.31,-283.07"/>
<text text-anchor="middle" x="122.76" y="-302.85" font-family="Times,serif" font-size="14.00">absent</text>
</g>
<!-- Type 1 sévère -->
<g id="node4" class="node">
<title>Type 1 sévère</title>
<ellipse fill="none" stroke="black" cx="153.51" cy="-263.65" rx="62.61" ry="18"/>
<text text-anchor="middle" x="153.51" y="-258.6" font-family="Times,serif" font-size="14.00">Type 1 sévère</text>
</g>
<!-- vWFpp&#45;&gt;Type 1 sévère -->
<g id="edge3" class="edge">
<title>vWFpp&#45;&gt;Type 1 sévère</title>
<path fill="none" stroke="black" d="M153.51,-334.06C153.51,-322.41 153.51,-306.7 153.51,-293.17"/>
<polygon fill="black" stroke="black" points="157.01,-293.52 153.51,-283.52 150.01,-293.52 157.01,-293.52"/>
<text text-anchor="middle" x="173.01" y="-302.85" font-family="Times,serif" font-size="14.00">présent</text>
</g>
<!-- FVIII/ag vWF -->
<g id="node6" class="node">
<title>FVIII/ag vWF</title>
<ellipse fill="none" stroke="black" cx="298.51" cy="-263.65" rx="64.66" ry="18"/>
<text text-anchor="middle" x="298.51" y="-258.6" font-family="Times,serif" font-size="14.00">FVIII/ag vWF</text>
</g>
<!-- activité/Ag vWF&#45;&gt;FVIII/ag vWF -->
<g id="edge5" class="edge">
<title>activité/Ag vWF&#45;&gt;FVIII/ag vWF</title>
<path fill="none" stroke="black" d="M298.51,-334.06C298.51,-322.41 298.51,-306.7 298.51,-293.17"/>
<polygon fill="black" stroke="black" points="302.01,-293.52 298.51,-283.52 295.01,-293.52 302.01,-293.52"/>
<text text-anchor="middle" x="313.13" y="-302.85" font-family="Times,serif" font-size="14.00">&gt; 0.7</text>
</g>
<!-- Type 2 -->
<g id="node11" class="node">
<title>Type 2</title>
<ellipse fill="none" stroke="black" cx="487.51" cy="-263.65" rx="36.51" ry="18"/>
<text text-anchor="middle" x="487.51" y="-258.6" font-family="Times,serif" font-size="14.00">Type 2</text>
</g>
<!-- activité/Ag vWF&#45;&gt;Type 2 -->
<g id="edge10" class="edge">
<title>activité/Ag vWF&#45;&gt;Type 2</title>
<path fill="none" stroke="black" d="M331.86,-335.89C365.38,-320.55 416.88,-296.98 451.36,-281.2"/>
<polygon fill="black" stroke="black" points="452.46,-284.54 460.1,-277.2 449.55,-278.18 452.46,-284.54"/>
<text text-anchor="middle" x="425.13" y="-302.85" font-family="Times,serif" font-size="14.00">&lt; 0.7</text>
</g>
<!-- Type 1 et 2M -->
<g id="node7" class="node">
<title>Type 1 et 2M</title>
<ellipse fill="none" stroke="black" cx="160.51" cy="-140.83" rx="61.59" ry="18"/>
<text text-anchor="middle" x="160.51" y="-135.78" font-family="Times,serif" font-size="14.00">Type 1 et 2M</text>
</g>
<!-- FVIII/ag vWF&#45;&gt;Type 1 et 2M -->
<g id="edge6" class="edge">
<title>FVIII/ag vWF&#45;&gt;Type 1 et 2M</title>
<path fill="none" stroke="black" d="M279.61,-246.1C255.87,-225.32 214.95,-189.49 187.81,-165.73"/>
<polygon fill="black" stroke="black" points="190.15,-163.12 180.32,-159.17 185.54,-168.39 190.15,-163.12"/>
<text text-anchor="middle" x="273.13" y="-214.35" font-family="Times,serif" font-size="14.00">&gt; 0.7</text>
</g>
<!-- vWF:FVIIIb -->
<g id="node8" class="node">
<title>vWF:FVIIIb</title>
<ellipse fill="none" stroke="black" cx="298.51" cy="-140.83" rx="58" ry="18"/>
<text text-anchor="middle" x="298.51" y="-135.78" font-family="Times,serif" font-size="14.00">vWF:FVIIIb</text>
</g>
<!-- FVIII/ag vWF&#45;&gt;vWF:FVIIIb -->
<g id="edge7" class="edge">
<title>FVIII/ag vWF&#45;&gt;vWF:FVIIIb</title>
<path fill="none" stroke="black" d="M298.51,-245.34C298.51,-225.78 298.51,-193.64 298.51,-170.36"/>
<polygon fill="black" stroke="black" points="302.01,-170.62 298.51,-160.62 295.01,-170.62 302.01,-170.62"/>
<text text-anchor="middle" x="313.13" y="-214.35" font-family="Times,serif" font-size="14.00">&lt; 0.7</text>
</g>
<!-- 2N -->
<g id="node9" class="node">
<title>2N</title>
<ellipse fill="none" stroke="black" cx="243.51" cy="-18" rx="27" ry="18"/>
<text text-anchor="middle" x="243.51" y="-12.95" font-family="Times,serif" font-size="14.00">2N</text>
</g>
<!-- vWF:FVIIIb&#45;&gt;2N -->
<g id="edge8" class="edge">
<title>vWF:FVIIIb&#45;&gt;2N</title>
<path fill="none" stroke="black" d="M290.63,-122.51C281.5,-102.46 266.35,-69.19 255.7,-45.79"/>
<polygon fill="black" stroke="black" points="258.98,-44.53 251.65,-36.88 252.61,-47.43 258.98,-44.53"/>
<text text-anchor="middle" x="292.01" y="-57.2" font-family="Times,serif" font-size="14.00">diminuée</text>
</g>
<!-- Hémophilie A -->
<g id="node10" class="node">
<title>Hémophilie A</title>
<ellipse fill="none" stroke="black" cx="352.51" cy="-18" rx="63.63" ry="18"/>
<text text-anchor="middle" x="352.51" y="-12.95" font-family="Times,serif" font-size="14.00">Hémophilie A</text>
</g>
<!-- vWF:FVIIIb&#45;&gt;Hémophilie A -->
<g id="edge9" class="edge">
<title>vWF:FVIIIb&#45;&gt;Hémophilie A</title>
<path fill="none" stroke="black" d="M306.25,-122.51C315.11,-102.69 329.75,-69.93 340.18,-46.58"/>
<polygon fill="black" stroke="black" points="343.28,-48.22 344.17,-37.66 336.89,-45.36 343.28,-48.22"/>
<text text-anchor="middle" x="357.01" y="-57.2" font-family="Times,serif" font-size="14.00">normal</text>
</g>
<!-- 2B\nPT&#45;VWD\nsi RIPA\naugmenté -->
<g id="node12" class="node">
<title>2B\nPT&#45;VWD\nsi RIPA\naugmenté</title>
<ellipse fill="none" stroke="black" cx="423.51" cy="-140.83" rx="48.97" ry="52.33"/>
<text text-anchor="middle" x="423.51" y="-160.53" font-family="Times,serif" font-size="14.00">2B</text>
<text text-anchor="middle" x="423.51" y="-144.03" font-family="Times,serif" font-size="14.00">PT&#45;VWD</text>
<text text-anchor="middle" x="423.51" y="-127.53" font-family="Times,serif" font-size="14.00">si RIPA</text>
<text text-anchor="middle" x="423.51" y="-111.03" font-family="Times,serif" font-size="14.00">augmenté</text>
</g>
<!-- Type 2&#45;&gt;2B\nPT&#45;VWD\nsi RIPA\naugmenté -->
<g id="edge11" class="edge">
<title>Type 2&#45;&gt;2B\nPT&#45;VWD\nsi RIPA\naugmenté</title>
<path fill="none" stroke="black" d="M478.61,-245.85C471.8,-232.99 462,-214.49 452.55,-196.65"/>
<polygon fill="black" stroke="black" points="455.84,-195.38 448.06,-188.18 449.65,-198.66 455.84,-195.38"/>
</g>
<!-- 2A\nsi HPM\nabsents -->
<g id="node13" class="node">
<title>2A\nsi HPM\nabsents</title>
<ellipse fill="none" stroke="black" cx="532.51" cy="-140.83" rx="41.54" ry="40.66"/>
<text text-anchor="middle" x="532.51" y="-152.28" font-family="Times,serif" font-size="14.00">2A</text>
<text text-anchor="middle" x="532.51" y="-135.78" font-family="Times,serif" font-size="14.00">si HPM</text>
<text text-anchor="middle" x="532.51" y="-119.28" font-family="Times,serif" font-size="14.00">absents</text>
</g>
<!-- Type 2&#45;&gt;2A\nsi HPM\nabsents -->
<g id="edge12" class="edge">
<title>Type 2&#45;&gt;2A\nsi HPM\nabsents</title>
<path fill="none" stroke="black" d="M493.86,-245.6C499.24,-231.16 507.21,-209.75 514.53,-190.11"/>
<polygon fill="black" stroke="black" points="517.76,-191.46 517.97,-180.86 511.2,-189.01 517.76,-191.46"/>
</g>
<!-- 2B sinon -->
<g id="node14" class="node">
<title>2B sinon</title>
<ellipse fill="none" stroke="black" cx="636.51" cy="-140.83" rx="44.19" ry="18"/>
<text text-anchor="middle" x="636.51" y="-135.78" font-family="Times,serif" font-size="14.00">2B sinon</text>
</g>
<!-- Type 2&#45;&gt;2B sinon -->
<g id="edge13" class="edge">
<title>Type 2&#45;&gt;2B sinon</title>
<path fill="none" stroke="black" d="M508.75,-248.57C528.65,-235.08 558.92,-213.78 583.51,-193.15 593.62,-184.67 604.18,-174.7 613.19,-165.81"/>
<polygon fill="black" stroke="black" points="615.63,-168.33 620.22,-158.78 610.67,-163.38 615.63,-168.33"/>
</g>
</g>
</svg>
